<?xml version="1.0" encoding="utf-8"?>
<!-- Generator: Adobe Illustrator 18.1.1, SVG Export Plug-In . SVG Version: 6.00 Build 0)  -->
<svg version="1.1" id="Layer_1" xmlns="http://www.w3.org/2000/svg" xmlns:xlink="http://www.w3.org/1999/xlink" x="0px" y="0px"
	 viewBox="0 0 74.3 26.7" enable-background="new 0 0 74.3 26.7" xml:space="preserve">
<g>
	<path fill="#FFFFFF" d="M4.8,23.2c-0.4-0.8-0.9-1.4-0.9-2.5c0-0.2,0-0.5,0.1-0.8c1.1-3,8.3-8.5,10.2-8.5c1.3,0,2.3,1.3,3.3,2.3
		c1.5,0.6,2.7,1.5,2.7,1.8c0,0.1-0.1,0.1-0.1,0.2c-2.7,1.8-6.5,5.9-6.5,6.8c0,0.1,0.1,0.3,0.3,0.3c0.3,0,3.3-1.5,6.1-4.5
		c0.1-0.1,0.1-0.1,0.3-0.1c0.4,0,0.6,0.7,0.6,0.9c0,1-5.3,5.7-7.4,5.7c-1.2,0-2.2-1.1-2.2-2.7c-2.2,2-3.4,2.9-4.4,2.9
		C6,24.9,5.3,24.2,4.8,23.2z M7,23c0.1,0,0.2,0,0.3-0.1c2.2-1.1,8.3-7.5,8.4-7.8c0-0.1,0.1-0.1,0.1-0.2c0-0.2-0.2-0.4-0.5-0.4
		c-0.3,0-1.4,0.6-2.3,1.2c-1.7,1.2-3,2.3-4.3,3.8c-1,1-2.1,2.3-2.1,3C6.5,22.8,6.8,23,7,23z"/>
	<path fill="#FFFFFF" d="M18.7,21.1c0-0.4,0.1-1,0.4-1.5c1.7-3.8,7.3-7.9,9.8-7.9c0.4,0,0.6,0.1,0.9,0.3c0.9,0.7,1.4,1.6,1.7,2.2
		c1.3-1.4,8.7-9.7,10.6-11.5c0.2-0.2,0.4-0.3,0.5-0.3c0.1,0,0.2,0,0.4,0.1c0.8,0.5,1.8,1.8,1.8,2.3c0,0.2-0.1,0.4-0.2,0.6
		c-5,4.6-8.9,8.8-13.4,13.7c-1.3,1.4-2.2,2.4-2.2,3c0,0.2,0.1,0.3,0.3,0.3c0.7,0,1.5-0.4,4.1-2.5c0.8-0.6,1.9-1.8,2.2-1.8
		c0.3,0,0.6,0.7,0.6,0.9c0,0.8-5.5,5.6-7.5,5.6c-1.3,0-2.2-1.1-2.2-2.4c-1.1,0.9-3,2.6-4.6,2.6C20.2,24.9,18.7,22.2,18.7,21.1z
		 M22.3,22.4c0.2,0,0.6-0.1,1-0.4c1.4-1,6.7-5.4,6.7-6.4c0-0.4-0.2-0.7-0.8-0.7c-0.9,0-7.4,5.1-7.4,7C21.8,22.2,21.8,22.4,22.3,22.4
		z"/>
	<path fill="#FFFFFF" d="M36.2,17.9c4.1-2.9,7-7.3,7.5-7.3c0.9,0,2.1,1.1,2.7,1.6c0.1,0.1,0.1,0.2,0.1,0.3c0,0.1,0,0.1-0.1,0.2
		c-0.7,0.7-1.7,3.1-1.9,4.3c-0.2,1.5-0.5,3.3-1.1,4.6c-0.5,1.1-2.5,3-5,3c-2.1,0-4.6-3.5-4.6-5c0-0.8,0.9-2.1,1.8-2.1
		C35.9,17.5,36.1,17.6,36.2,17.9z M36.5,19.8c0.3,1.2,1,2.3,1.8,2.3c0.8,0,1.6-1.4,2.2-3c0.4-0.9,0.9-2.8,0.9-3.3
		c0-0.1,0-0.1-0.1-0.1s-0.2,0.1-0.4,0.3C39.7,17.2,37.5,19.1,36.5,19.8z"/>
	<path fill="#FFFFFF" d="M49.7,19.6c-0.6,0.9-0.9,1.6-0.9,2.1c0,0.5,0.2,1.1,1.1,1.1c0.5,0,1.2-0.2,1.5-0.3c5.4-2,8.2-4.6,8.4-4.6
		c0.2,0,0.3,0.2,0.3,0.3c0,0.3-1.2,1.7-2.4,2.8c-2.1,2-5,4-7.9,4c-1.3,0-4.1-3-4.1-4.2c0-2.8,2.2-5.2,4.5-7.2
		c2.3-2.1,4.1-3.1,5.2-3.1c0.6,0,1.4,0.6,2.2,1.4c1.1,1,1.1,1.5,1.1,1.8c0,2.8-4.8,6.8-7,6.8C51.2,20.6,50.3,20.3,49.7,19.6z
		 M50.5,18.5c0.2,0.4,0.6,0.4,0.7,0.4c1.7,0,5.5-4.1,5.5-5c0-0.2-0.1-0.3-0.4-0.3c-0.2,0-0.5,0.1-0.6,0.2
		C53.8,15.1,51.9,16.9,50.5,18.5z"/>
	<path fill="#FFFFFF" d="M62,19.6c-0.6,0.9-0.9,1.6-0.9,2.1c0,0.5,0.2,1.1,1.1,1.1c0.5,0,1.2-0.2,1.5-0.3c5.4-2,8.2-4.6,8.4-4.6
		c0.2,0,0.3,0.2,0.3,0.3c0,0.3-1.2,1.7-2.4,2.8c-2.1,2-5,4-7.9,4c-1.3,0-4.1-3-4.1-4.2c0-2.8,2.2-5.2,4.5-7.2
		c2.3-2.1,4.1-3.1,5.2-3.1c0.6,0,1.4,0.6,2.2,1.4c1.1,1,1.1,1.5,1.1,1.8c0,2.8-4.8,6.8-7,6.8C63.5,20.6,62.6,20.3,62,19.6z
		 M62.8,18.5c0.2,0.4,0.6,0.4,0.7,0.4c1.7,0,5.5-4.1,5.5-5c0-0.2-0.1-0.3-0.4-0.3c-0.2,0-0.5,0.1-0.6,0.2
		C66.1,15.1,64.2,16.9,62.8,18.5z"/>
</g>
</svg>
