<?xml version="1.0" encoding="utf-8"?>
<!-- Generator: Adobe Illustrator 18.1.1, SVG Export Plug-In . SVG Version: 6.00 Build 0)  -->
<svg version="1.1" id="Layer_1" xmlns="http://www.w3.org/2000/svg" xmlns:xlink="http://www.w3.org/1999/xlink" x="0px" y="0px"
	 viewBox="0 0 358.5 59.5" enable-background="new 0 0 358.5 59.5" xml:space="preserve">
<path fill="#F46B76" d="M22.9,59.5L0,0h14.4l16.5,45.7L47.4,0h14.4L38.8,59.5H22.9z"/>
<path fill="#F46B76" d="M94,59.5V0h12.7v59.5H94z"/>
<path fill="#F46B76" d="M184,59.5l-14.9-21.8l-15,21.8H139L160.6,29L140.4,0h15.1l13.6,20.3L182.5,0h15.3l-20.2,28.9l21.6,30.6H184z
	"/>
<rect x="231.5" y="23.6" fill="#F46B76" width="41" height="11.1"/>
<rect x="231.5" y="48.3" fill="#F46B76" width="42.1" height="11.1"/>
<rect x="231.5" y="0" fill="#F46B76" width="42.1" height="11.1"/>
<path fill="#F46B76" d="M345,36.8c6.4-1.5,13.1-7.2,13.1-17.7c0-11.1-7.7-19.2-20.1-19.2h-27.8v11.1h12.7h13.4c5,0,8.8,3,8.8,7.9
	c0,5.1-3.8,8.1-8.8,8.1h-13.4l-12.7,0.1v32.2h12.7V38.3h9.3l11.7,21.1h14.6L345,36.8z"/>
</svg>
